HIERARCHY
ROOT Hips
{
  OFFSET 0 89.5177 0.535
  CHANNELS 6 Xposition Yposition Zposition Zrotation Xrotation Yrotation
  JOINT Spine
  {
    OFFSET 12.0259 -0.162855 1.69034e-005
    CHANNELS 3 Zrotation Xrotation Yrotation
    JOINT Spine1
    {
      OFFSET 15.3169 -0.0121922 0
      CHANNELS 3 Zrotation Xrotation Yrotation
      JOINT Spine2
      {
        OFFSET 15.3176 -0.0121908 0
        CHANNELS 3 Zrotation Xrotation Yrotation
        JOINT Neck
        {
          OFFSET 19.9142 1.56338 0
          CHANNELS 3 Zrotation Xrotation Yrotation
          JOINT Head
          {
            OFFSET 6.92651 0 0
            CHANNELS 3 Zrotation Xrotation Yrotation
            End Site
            {
              OFFSET 20.7666 0 0
            }
          }
          JOINT LeftShoulder
          {
            OFFSET -6.20654 0.708824 7.28219
            CHANNELS 3 Zrotation Xrotation Yrotation
            JOINT LeftArm
            {
              OFFSET 14.108 0 -1.52588e-005
              CHANNELS 3 Zrotation Xrotation Yrotation
              JOINT LeftForeArm
              {
                OFFSET 28.5802 0 0
                CHANNELS 3 Zrotation Xrotation Yrotation
                JOINT LeftHand
                {
                  OFFSET 27.092 0 0
                  CHANNELS 3 Zrotation Xrotation Yrotation
                  End Site
                  {
                    OFFSET 9.55928 -0.186424 0.145352
                  }
                }
              }
            }
          }
          JOINT RightShoulder
          {
            OFFSET -6.20654 0.708866 -7.28218
            CHANNELS 3 Zrotation Xrotation Yrotation
            JOINT RightArm
            {
              OFFSET 14.108 0 1.52588e-005
              CHANNELS 3 Zrotation Xrotation Yrotation
              JOINT RightForeArm
              {
                OFFSET 28.5802 0 0
                CHANNELS 3 Zrotation Xrotation Yrotation
                JOINT RightHand
                {
                  OFFSET 27.092 0 0
                  CHANNELS 3 Zrotation Xrotation Yrotation
                  End Site
                  {
                    OFFSET 9.55929 -0.186417 -0.145354
                  }
                }
              }
            }
          }
        }
      }
    }
  }
  JOINT LeftUpLeg
  {
    OFFSET 0.005 -0.535 8.837
    CHANNELS 3 Zrotation Xrotation Yrotation
    JOINT LeftLeg
    {
      OFFSET 39.9035 0 0
      CHANNELS 3 Zrotation Xrotation Yrotation
      JOINT LeftFoot
      {
        OFFSET 39.6689 0 0
        CHANNELS 3 Zrotation Xrotation Yrotation
        JOINT LeftToe
        {
          OFFSET 10.1624 13.6296 0
          CHANNELS 3 Zrotation Xrotation Yrotation
          End Site
          {
            OFFSET 8.38147 0 0
          }
        }
      }
    }
  }
  JOINT RightUpLeg
  {
    OFFSET 0.005 -0.535 -8.837
    CHANNELS 3 Zrotation Xrotation Yrotation
    JOINT RightLeg
    {
      OFFSET 39.9035 0 0
      CHANNELS 3 Zrotation Xrotation Yrotation
      JOINT RightFoot
      {
        OFFSET 39.6689 0 0
        CHANNELS 3 Zrotation Xrotation Yrotation
        JOINT RightToe
        {
          OFFSET 10.1624 13.6296 0
          CHANNELS 3 Zrotation Xrotation Yrotation
          End Site
          {
            OFFSET 8.38147 0 0
          }
        }
      }
    }
  }
}
MOTION
Frames:	6
Frame Time:	0.0333333
386.375 88.2285 13.0341 94.0864 -2.40355 1.19696 0.460977 -1.73621 -0.48846 0.907758 -3.47576 -0.963422 0.907758 -3.47576 -0.963431 -8.30736e-012 -9.0191e-006 -5.27751e-005 2.5483 -2.78325 0.591471 -173.697 -18.0716 -70.4012 -27.8984 1.78031 56.135 -23.1827 0 1.59028e-015 -27.0594 -59.6155 -31.0361 -175.969 12.4332 71.8765 -24.8655 -8.22417 -62.5018 -26.3349 -2.38542e-015 -1.59028e-015 -66.5844 72.1913 69.693 -10.3002 16.2663 -178.285 -20.2805 -3.18055e-015 -3.97569e-016 17.1645 5.94099 -1.27857 90 4.96962e-017 3.18055e-015 -15.1888 -0.858223 178.532 -23.5051 7.95139e-016 3.97569e-016 14.7994 -5.54775 0.490781 90 0 7.95139e-016 
386.229 88.2235 13.1213 93.6972 -1.64682 1.37766 0.545082 -1.85086 -0.509148 1.07453 -3.70594 -1.00127 1.07453 -3.70594 -1.00128 -8.30994e-012 -9.0191e-006 -5.27751e-005 1.42417 -2.80261 0.691267 -173.752 -17.8247 -70.3208 -27.0526 1.50745 55.7632 -22.6603 -3.18055e-015 -4.77083e-015 -26.9483 -59.4383 -30.903 -176.023 12.4351 72.1058 -25.4695 -8.57635 -62.1645 -25.8873 0 1.59028e-015 -65.9171 72.4217 68.9749 -9.74332 15.9417 -178.66 -20.1805 -3.18055e-015 -7.95139e-016 17.3448 6.25513 -1.26261 90 0 -0 -14.8448 -1.98211 177.847 -23.9315 7.95139e-016 4.96962e-016 15.4281 -6.22829 0.750961 90 -1.2424e-017 7.95139e-016 
386.168 88.2342 13.09 93.6982 -1.10019 1.34307 0.532894 -1.88288 -0.478398 1.05089 -3.7696 -0.939843 1.05089 -3.7696 -0.939853 -8.30624e-012 -9.0191e-006 -5.27751e-005 0.692437 -2.95502 0.86706 -173.786 -17.686 -70.2807 -26.649 1.3377 55.6209 -22.1715 3.18055e-015 7.95139e-016 -26.7842 -59.2782 -30.7152 -176.04 12.488 72.2497 -25.7265 -8.95666 -61.689 -25.3073 0 3.18055e-015 -65.4821 72.4034 68.5165 -9.84722 15.9011 -178.589 -20.3452 4.77083e-015 -7.95139e-016 17.6191 6.7021 -1.44675 90 -1.49089e-016 -3.18055e-015 -14.8786 -3.79472 177.57 -24.0891 2.38542e-015 5.96354e-016 15.9398 -7.21869 0.758822 90 -1.2424e-017 3.97569e-016 
386.14 88.2689 13.0133 93.8039 -0.88398 1.3816 0.49353 -1.82357 -0.473589 0.972704 -3.65062 -0.931981 0.972704 -3.65062 -0.93199 -8.30852e-012 -9.0191e-006 -5.27751e-005 0.316083 -3.12792 1.23691 -173.829 -17.6922 -70.4151 -26.4633 1.11243 55.7845 -21.8948 3.18055e-015 1.59028e-015 -26.4009 -59.2347 -30.3064 -176.057 12.4392 72.2575 -25.4334 -9.25936 -61.1093 -24.6713 -1.59028e-015 1.59028e-015 -65.0862 72.371 68.0997 -9.7235 15.5765 -178.698 -19.9221 1.59028e-015 7.95139e-016 17.4202 6.57474 -1.39866 90 -9.93923e-017 1.59028e-015 -14.8421 -4.05057 177.583 -23.8514 7.95139e-016 -1.98785e-016 15.7833 -7.10284 0.643586 90 -2.48481e-017 -0 
386.102 88.3012 12.9223 93.8154 -0.768092 1.43731 0.474122 -1.7555 -0.475951 0.934072 -3.51438 -0.942796 0.934072 -3.51438 -0.942805 -8.30644e-012 -9.0191e-006 -5.27751e-005 0.0280359 -3.244 1.67025 -173.765 -17.8945 -70.4252 -26.6319 1.20037 55.8867 -22.2072 0 7.95139e-016 -26.0503 -59.3592 -29.9475 -176.078 12.3479 72.2261 -24.8644 -9.32546 -60.5375 -23.8552 3.18055e-015 -0 -64.816 72.2661 67.8194 -9.4595 15.1186 -178.824 -19.4159 4.77083e-015 -0 17.0061 6.24059 -1.4107 90 1.98785e-016 1.59028e-015 -14.5923 -3.33315 177.696 -23.4323 -2.38542e-015 -7.95139e-016 15.2559 -6.4152 0.548471 90 -1.2424e-017 7.95139e-016 
386.118 88.3079 12.8385 93.8735 -0.459373 1.47348 0.474426 -1.74841 -0.478329 0.934889 -3.5002 -0.942645 0.934889 -3.5002 -0.942654 -8.30847e-012 -9.0191e-006 -5.27751e-005 -0.463031 -3.17098 1.97014 -173.736 -17.9822 -70.4259 -26.8227 1.68464 55.9715 -23.2938 6.36111e-015 7.95139e-016 -26.0253 -59.8113 -29.9601 -176.118 12.2596 72.2786 -24.3589 -9.0435 -60.1165 -22.9891 1.59028e-015 -0 -64.508 72.0699 67.5028 -9.51867 14.8594 -178.857 -19.3257 -3.18055e-015 3.97569e-016 16.9156 6.25358 -1.46036 90 4.96962e-017 -1.59028e-015 -14.582 -3.28972 177.685 -23.3276 -7.95139e-016 -6.95746e-016 15.0696 -6.16303 0.488029 90 2.48481e-017 7.95139e-016 
